<?xml version="1.0" encoding="utf-8"?>
<!-- Generator: Adobe Illustrator 16.0.0, SVG Export Plug-In . SVG Version: 6.00 Build 0)  -->
<!DOCTYPE svg PUBLIC "-//W3C//DTD SVG 1.1//EN" "http://www.w3.org/Graphics/SVG/1.1/DTD/svg11.dtd">
<svg version="1.1" id="Layer_1" xmlns="http://www.w3.org/2000/svg" xmlns:xlink="http://www.w3.org/1999/xlink" x="0px" y="0px"
	 width="168.359px" height="51.23px" viewBox="0 0 168.359 51.23" enable-background="new 0 0 168.359 51.23" xml:space="preserve">
<g>
	<g>
		<defs>
			<rect id="SVGID_1_" x="387.36" y="-1.769" width="320.001" height="532.001"/>
		</defs>
		<clipPath id="SVGID_2_">
			<use xlink:href="#SVGID_1_"  overflow="visible"/>
		</clipPath>
	</g>
</g>
<g>
	<g>
		<path fill="#2E3192" d="M27.167,34.132c-0.039,0.03-0.261,0.116-0.666,0.258c-0.406,0.144-0.915,0.296-1.527,0.46
			c-0.613,0.165-1.294,0.317-2.043,0.458c-0.749,0.142-1.472,0.225-2.169,0.25c-0.987,0.037-1.828-0.065-2.523-0.308
			c-0.695-0.244-1.244-0.583-1.646-1.021c-0.402-0.438-0.648-0.959-0.737-1.563c-0.09-0.604-0.021-1.251,0.202-1.938l5.312-16.285
			c0.168-0.516,0.312-1.065,0.431-1.649s0.137-1.123,0.054-1.615c-0.084-0.491-0.299-0.887-0.646-1.186
			c-0.349-0.299-0.886-0.434-1.61-0.407c-0.608,0.022-1.165,0.164-1.665,0.423c-0.501,0.26-0.95,0.602-1.347,1.026
			s-0.74,0.904-1.029,1.438s-0.525,1.088-0.712,1.66l-0.534,1.633l3.442-0.128l-1.696,5.199l-3.44,0.128L7.806,35.703l-6.969,0.26
			l4.809-14.738l-2.919,0.109l1.696-5.199l2.919-0.109l1.065-3.266c0.467-1.432,1.115-2.694,1.943-3.786
			c0.83-1.092,1.812-2.014,2.945-2.763c1.133-0.75,2.383-1.327,3.749-1.732c1.364-0.403,2.833-0.636,4.399-0.694
			c1.801-0.066,3.284,0.091,4.451,0.471c1.166,0.381,2.046,0.958,2.642,1.727c0.596,0.771,0.915,1.707,0.957,2.81
			c0.042,1.102-0.161,2.341-0.609,3.715l-4.71,14.438c-0.178,0.544-0.204,1.09-0.081,1.638c0.122,0.547,0.546,0.808,1.272,0.78
			c0.261-0.01,0.541-0.055,0.84-0.138c0.299-0.081,0.584-0.164,0.854-0.244c0.271-0.081,0.504-0.16,0.702-0.237
			c0.197-0.078,0.312-0.117,0.34-0.119L27.167,34.132z"/>
		<path fill="#2E3192" d="M35.718,35.087c-1.132,0.042-2.126-0.098-2.983-0.419c-0.855-0.321-1.525-0.792-2.014-1.411
			c-0.487-0.618-0.792-1.356-0.912-2.215c-0.123-0.858-0.015-1.803,0.321-2.834c0.364-1.118,0.936-2.144,1.715-3.077
			c0.778-0.936,1.709-1.747,2.796-2.439c1.086-0.69,2.284-1.244,3.598-1.661c1.312-0.418,2.693-0.653,4.146-0.707
			c0.958-0.036,1.861,0.01,2.711,0.132c0.848,0.125,1.555,0.332,2.121,0.622l0.336-1.031c0.851-2.606-0.249-3.854-3.299-3.739
			c-1.249,0.047-2.506,0.298-3.774,0.756s-2.663,1.126-4.182,2.002l-0.646-4.22c1.827-1.03,3.634-1.819,5.419-2.367
			s3.593-0.855,5.423-0.924c3.456-0.128,5.864,0.575,7.229,2.108c1.364,1.533,1.542,3.848,0.532,6.94l-1.893,5.801
			c-0.224,0.688-0.25,1.163-0.077,1.426c0.172,0.262,0.583,0.41,1.232,0.441l-1.893,5.8c-0.715,0.169-1.362,0.285-1.942,0.35
			c-0.581,0.063-1.089,0.104-1.523,0.121c-1.27,0.019-2.157-0.203-2.666-0.666c-0.511-0.461-0.702-1.146-0.577-2.059l0.205-1.025
			c-1.438,1.328-2.973,2.359-4.604,3.101C38.886,34.629,37.286,35.029,35.718,35.087z M39.378,30.069
			c0.754-0.027,1.53-0.185,2.326-0.469c0.795-0.284,1.495-0.649,2.101-1.097c0.834-0.54,1.347-1.097,1.533-1.67l0.701-2.148
			c-0.535-0.207-1.139-0.36-1.808-0.464c-0.67-0.102-1.309-0.142-1.919-0.119c-1.276,0.047-2.423,0.373-3.438,0.978
			c-1.016,0.604-1.671,1.363-1.971,2.28c-0.271,0.831-0.174,1.5,0.292,2.006C37.662,29.872,38.39,30.106,39.378,30.069z"/>
		<path fill="#2E3192" d="M64.467,34.016c-0.958,0.036-1.93,0.001-2.913-0.104c-0.984-0.104-1.945-0.26-2.882-0.465
			c-0.938-0.205-1.812-0.471-2.624-0.794c-0.813-0.322-1.497-0.688-2.054-1.091l4.258-4.743c1.229,0.804,2.479,1.407,3.754,1.813
			c1.272,0.405,2.563,0.583,3.871,0.534c1.016-0.038,1.844-0.225,2.484-0.561c0.64-0.334,1.058-0.803,1.254-1.403
			c0.196-0.603-0.017-1.055-0.634-1.356c-0.619-0.302-1.739-0.648-3.36-1.042c-1.409-0.343-2.585-0.695-3.528-1.057
			c-0.944-0.36-1.661-0.779-2.15-1.257c-0.489-0.477-0.777-1.024-0.861-1.645c-0.085-0.619,0.013-1.359,0.293-2.218
			c0.375-1.146,0.954-2.2,1.742-3.164c0.787-0.963,1.709-1.79,2.767-2.48c1.057-0.689,2.22-1.242,3.488-1.657
			c1.268-0.415,2.585-0.648,3.95-0.699c1.598-0.06,3.153,0.116,4.67,0.525c1.516,0.411,2.936,1.003,4.263,1.773l-4.16,4.441
			c-1.17-0.721-2.257-1.238-3.258-1.555s-2.024-0.456-3.07-0.417c-0.872,0.033-1.638,0.209-2.303,0.532
			c-0.665,0.322-1.104,0.812-1.319,1.471c-0.103,0.316-0.117,0.577-0.041,0.787c0.075,0.209,0.248,0.4,0.523,0.574
			c0.271,0.175,0.659,0.33,1.159,0.466c0.501,0.138,1.125,0.292,1.873,0.461c1.544,0.367,2.826,0.743,3.848,1.13
			c1.021,0.388,1.809,0.831,2.362,1.333c0.553,0.503,0.877,1.093,0.973,1.769c0.095,0.675-0.011,1.484-0.319,2.431
			c-0.365,1.118-0.919,2.136-1.664,3.054c-0.745,0.921-1.641,1.711-2.688,2.371c-1.048,0.662-2.224,1.188-3.524,1.575
			C67.34,33.738,65.948,33.96,64.467,34.016z"/>
		<path fill="#2E3192" d="M99.628,32.281l-6.969,0.26l4.135-12.675c0.477-1.462,0.529-2.524,0.158-3.19
			c-0.372-0.665-1.064-0.979-2.082-0.941c-0.406,0.016-0.88,0.126-1.42,0.33c-0.539,0.204-1.094,0.494-1.659,0.868
			c-0.567,0.375-1.119,0.813-1.654,1.313c-0.537,0.501-1.005,1.056-1.404,1.666l-4.219,12.934l-6.969,0.26L87.775,1.738l6.971-0.26
			l-4.107,12.59c1.282-1.377,2.731-2.458,4.35-3.239c1.616-0.782,3.269-1.204,4.953-1.268c1.538-0.057,2.693,0.162,3.464,0.657
			s1.277,1.14,1.521,1.938c0.242,0.798,0.283,1.702,0.126,2.712c-0.158,1.011-0.396,2.004-0.714,2.977L99.628,32.281z"/>
		<path fill="#2E3192" d="M112.357,6.976l2.032-6.229l6.97-0.26l-2.031,6.23L112.357,6.976z M104.158,32.112l7.357-22.558
			l6.969-0.26l-7.356,22.559L104.158,32.112z"/>
		<path fill="#2E3192" d="M126.668,31.698c-1.916,0.07-3.535-0.174-4.859-0.731c-1.324-0.559-2.344-1.349-3.058-2.369
			c-0.715-1.021-1.122-2.215-1.219-3.584c-0.1-1.368,0.1-2.812,0.595-4.331c0.532-1.633,1.311-3.182,2.334-4.648
			c1.021-1.468,2.235-2.765,3.637-3.893c1.4-1.127,2.965-2.035,4.696-2.722c1.729-0.688,3.566-1.066,5.513-1.139
			c1.946-0.073,3.571,0.179,4.875,0.752c1.305,0.574,2.305,1.379,3,2.414c0.695,1.034,1.081,2.245,1.162,3.628
			c0.079,1.384-0.133,2.849-0.638,4.396c-0.13,0.401-0.275,0.795-0.43,1.185c-0.154,0.387-0.309,0.725-0.459,1.014l-16.9,0.63
			c-0.378,1.514-0.196,2.646,0.55,3.396c0.744,0.75,1.755,1.103,3.034,1.055c1.016-0.038,2.075-0.317,3.178-0.84
			c1.104-0.522,1.948-1.204,2.54-2.048l5.391,1.412c-1.479,1.812-3.346,3.31-5.598,4.496
			C131.757,30.957,129.311,31.599,126.668,31.698z M136.017,17.681c0.321-1.426,0.168-2.539-0.46-3.336
			c-0.631-0.796-1.612-1.171-2.949-1.121c-1.364,0.051-2.627,0.517-3.789,1.394c-1.161,0.878-2.044,2.021-2.646,3.431
			L136.017,17.681z"/>
		<path fill="#2E3192" d="M151.584,30.769c-0.959,0.036-1.931,0-2.914-0.104c-0.985-0.104-1.944-0.259-2.881-0.465
			c-0.938-0.205-1.812-0.471-2.624-0.793c-0.814-0.323-1.498-0.688-2.055-1.092l4.257-4.742c1.229,0.803,2.481,1.407,3.754,1.812
			s2.564,0.583,3.872,0.534c1.016-0.038,1.844-0.225,2.483-0.561c0.64-0.334,1.059-0.803,1.254-1.404
			c0.196-0.603-0.016-1.054-0.633-1.356c-0.62-0.302-1.74-0.648-3.36-1.042c-1.409-0.343-2.586-0.695-3.528-1.057
			c-0.944-0.361-1.66-0.78-2.149-1.257c-0.49-0.477-0.779-1.024-0.861-1.646c-0.087-0.619,0.012-1.358,0.293-2.218
			c0.374-1.146,0.954-2.201,1.74-3.164c0.788-0.963,1.71-1.79,2.769-2.48c1.057-0.689,2.219-1.241,3.487-1.656
			s2.586-0.649,3.951-0.7c1.598-0.06,3.152,0.117,4.668,0.527s2.938,1.001,4.264,1.771l-4.16,4.442
			c-1.171-0.721-2.257-1.238-3.258-1.556c-1.001-0.315-2.024-0.455-3.07-0.417c-0.871,0.033-1.64,0.21-2.304,0.532
			c-0.664,0.321-1.104,0.812-1.318,1.47c-0.102,0.316-0.117,0.578-0.042,0.787s0.249,0.401,0.522,0.575
			c0.272,0.174,0.659,0.33,1.159,0.466c0.5,0.138,1.125,0.291,1.872,0.46c1.546,0.367,2.828,0.744,3.85,1.13
			c1.021,0.387,1.809,0.831,2.36,1.333c0.554,0.503,0.877,1.093,0.974,1.769c0.095,0.676-0.012,1.486-0.319,2.432
			c-0.365,1.118-0.92,2.135-1.665,3.055s-1.641,1.71-2.688,2.371c-1.049,0.662-2.224,1.187-3.526,1.575
			C154.456,30.492,153.065,30.714,151.584,30.769z"/>
	</g>
	<polygon fill="#FF00FF" points="165.477,32.109 29.5,44.448 0.596,48.895 0.915,50.863 136.68,38.865 165.754,34.084 	"/>
</g>
</svg>
