<?xml version="1.0" encoding="utf-8"?>
<!-- Generator: Adobe Illustrator 16.0.0, SVG Export Plug-In . SVG Version: 6.00 Build 0)  -->
<!DOCTYPE svg PUBLIC "-//W3C//DTD SVG 1.0//EN" "http://www.w3.org/TR/2001/REC-SVG-20010904/DTD/svg10.dtd">
<svg version="1.0" id="Layer_1" xmlns="http://www.w3.org/2000/svg" xmlns:xlink="http://www.w3.org/1999/xlink" x="0px" y="0px"
	 width="435.936px" height="435.409px" viewBox="0 0 435.936 435.409" enable-background="new 0 0 435.936 435.409"
	 xml:space="preserve">
<g>
	<path fill="#FF00FF" d="M181.643,380.917H72.66c-10.026,0-18.164-8.119-18.164-18.164V253.771c0-4.831,1.907-9.445,5.322-12.841
		L285.285,15.462c20.616-20.634,56.526-20.598,77.142,0l57.525,57.524c21.27,21.252,21.27,55.872,0,77.142L194.484,375.595
		C191.088,379.01,186.456,380.917,181.643,380.917L181.643,380.917z M90.823,344.59h83.3l220.145-220.146
		c7.103-7.102,7.103-18.673,0-25.774l-57.524-57.524c-6.884-6.885-18.891-6.921-25.774,0L90.823,261.29V344.59L90.823,344.59z
		 M181.624,380.917c-8.482,0-16.057-5.958-17.782-14.604c-9.59-47.971-46.771-85.151-94.741-94.742
		c-9.846-1.961-16.221-11.534-14.241-21.379s11.497-16.275,21.379-14.241c62.393,12.479,110.745,60.849,123.223,123.224
		c1.962,9.845-4.413,19.398-14.24,21.379L181.624,380.917L181.624,380.917z M18.168,435.409c-4.649,0-9.299-1.78-12.841-5.322
		c-7.103-7.102-7.103-18.582,0-25.683l54.491-54.491c7.102-7.102,18.582-7.102,25.683,0c7.103,7.102,7.103,18.581,0,25.683
		L31.01,430.086C27.469,433.629,22.818,435.409,18.168,435.409z M417.772,435.409c-9.99,0-18.164-8.174-18.164-18.164
		c0-9.99,8.174-18.163,18.164-18.163s18.163,8.173,18.163,18.163C435.936,427.235,427.763,435.409,417.772,435.409z M363.28,435.409
		H24.163c-9.99,0-18.164-8.174-18.164-18.164c0-9.99,8.174-18.163,18.164-18.163H363.28c9.99,0,18.164,8.173,18.164,18.163
		C381.444,427.235,373.271,435.409,363.28,435.409z"/>
</g>
</svg>
