<?xml version="1.0" encoding="utf-8"?>
<!-- Generator: Adobe Illustrator 16.0.0, SVG Export Plug-In . SVG Version: 6.00 Build 0)  -->
<!DOCTYPE svg PUBLIC "-//W3C//DTD SVG 1.0//EN" "http://www.w3.org/TR/2001/REC-SVG-20010904/DTD/svg10.dtd">
<svg version="1.0" id="Layer_1" xmlns="http://www.w3.org/2000/svg" xmlns:xlink="http://www.w3.org/1999/xlink" x="0px" y="0px"
	 width="225.477px" height="303.46px" viewBox="0 0 225.477 303.46" enable-background="new 0 0 225.477 303.46"
	 xml:space="preserve">
<g>
	<path fill="#0000FF" d="M222.309,288.986c0.097,2.324-1.71,4.287-4.034,4.385l-193.511,7.979c-2.326,0.096-4.288-1.711-4.383-4.035
		L8.728,14.716c-0.096-2.324,1.711-4.287,4.035-4.383l193.511-7.979c2.325-0.096,4.287,1.711,4.382,4.034L222.309,288.986z"/>
	<path fill="#FF00FF" d="M216.085,286.637c0.096,2.323-1.711,4.286-4.036,4.382l-193.51,7.979c-2.325,0.098-4.287-1.709-4.383-4.035
		L2.504,12.364C2.407,10.04,4.215,8.078,6.539,7.982L200.05,0.004c2.324-0.097,4.287,1.711,4.382,4.033L216.085,286.637z"/>
	<path fill="#FFFFFF" stroke="#0000FF" stroke-width="2" stroke-miterlimit="10" d="M213.739,293.14
		c0,2.326-1.885,4.212-4.211,4.212H15.95c-2.326,0-4.211-1.886-4.211-4.212V10.563c0-2.326,1.885-4.212,4.211-4.212h193.578
		c2.326,0,4.211,1.886,4.211,4.212V293.14z"/>
</g>
</svg>
