<?xml version="1.0" encoding="utf-8"?>
<!-- Generator: Adobe Illustrator 16.0.0, SVG Export Plug-In . SVG Version: 6.00 Build 0)  -->
<!DOCTYPE svg PUBLIC "-//W3C//DTD SVG 1.0//EN" "http://www.w3.org/TR/2001/REC-SVG-20010904/DTD/svg10.dtd">
<svg version="1.0" id="Layer_1" xmlns="http://www.w3.org/2000/svg" xmlns:xlink="http://www.w3.org/1999/xlink" x="0px" y="0px"
	 width="36px" height="45px" viewBox="0 0 36 45" enable-background="new 0 0 36 45" xml:space="preserve">
<path fill="#FFFFFF" d="M36,42.166C36,43.731,34.73,45,33.165,45H2.835C1.27,45,0,43.731,0,42.166V2.834C0,1.269,1.27,0,2.835,0
	h30.33C34.73,0,36,1.269,36,2.834V42.166z"/>
<path fill="#2E3192" d="M30.8,31.959c-0.039,0.03-0.261,0.116-0.666,0.258c-0.406,0.144-0.915,0.296-1.527,0.46
	c-0.613,0.165-1.294,0.317-2.043,0.458c-0.749,0.142-1.472,0.225-2.169,0.25c-0.987,0.037-1.828-0.065-2.523-0.308
	c-0.695-0.244-1.244-0.583-1.646-1.021c-0.402-0.438-0.648-0.959-0.737-1.563c-0.09-0.604-0.021-1.251,0.202-1.938l5.312-16.285
	c0.168-0.516,0.312-1.065,0.431-1.649s0.137-1.123,0.054-1.615c-0.084-0.491-0.299-0.887-0.646-1.186
	c-0.349-0.299-0.886-0.434-1.61-0.407c-0.608,0.022-1.165,0.164-1.665,0.423c-0.501,0.26-0.95,0.602-1.347,1.026
	s-0.74,0.904-1.029,1.438s-0.525,1.088-0.712,1.66l-0.534,1.633l3.442-0.128l-1.696,5.199l-3.44,0.128L11.438,33.53L4.47,33.79
	l4.809-14.738l-2.919,0.109l1.696-5.199l2.919-0.109l1.065-3.266c0.467-1.432,1.115-2.694,1.943-3.786
	c0.83-1.092,1.812-2.014,2.945-2.763c1.133-0.75,2.383-1.327,3.749-1.732c1.364-0.403,2.833-0.636,4.399-0.694
	c1.801-0.066,3.284,0.091,4.451,0.471c1.166,0.381,2.046,0.958,2.642,1.727c0.596,0.771,0.915,1.707,0.957,2.81
	c0.042,1.102-0.161,2.341-0.609,3.715l-4.71,14.438c-0.178,0.544-0.204,1.09-0.081,1.638c0.122,0.547,0.546,0.808,1.272,0.78
	c0.261-0.01,0.541-0.055,0.84-0.138c0.299-0.081,0.584-0.164,0.854-0.244c0.271-0.081,0.504-0.16,0.702-0.237
	c0.197-0.078,0.312-0.117,0.34-0.119L30.8,31.959z"/>
<polygon fill="#FF00FF" points="34.049,35.961 8.551,38.594 2.422,40.833 1.705,42.667 27.038,40.336 33.324,37.799 "/>
</svg>
