<?xml version="1.0" encoding="utf-8"?>
<!-- Generator: Adobe Illustrator 16.0.0, SVG Export Plug-In . SVG Version: 6.00 Build 0)  -->
<!DOCTYPE svg PUBLIC "-//W3C//DTD SVG 1.0//EN" "http://www.w3.org/TR/2001/REC-SVG-20010904/DTD/svg10.dtd">
<svg version="1.0" id="Layer_1" xmlns="http://www.w3.org/2000/svg" xmlns:xlink="http://www.w3.org/1999/xlink" x="0px" y="0px"
	 width="555.092px" height="454.596px" viewBox="0 0 555.092 454.596" enable-background="new 0 0 555.092 454.596"
	 xml:space="preserve">
<g>
	<path fill="#FF00FF" d="M527.476,42.841L327.744,0.729c-15.808-3.315-31.309,4.973-38.17,18.906H163.629
		c-19.168,0-34.707,15.795-34.707,34.989v1.184L27.616,77.049C8.819,80.985-3.193,99.372,0.749,118.156l64.729,308.832
		c3.936,18.778,22.349,30.784,41.095,26.867l219.219-45.945c3.175-0.672,6.055-1.882,8.794-3.283h43.359l70.573,15.033
		c18.745,3.93,37.158-8.076,41.094-26.873l64.731-308.819C558.285,65.17,546.266,46.783,527.476,42.841z M105.722,410.656
		c-1.927,0.416-3.897-1.107-4.281-3.015L41.389,121.164c-0.403-1.907,0.852-3.821,2.791-4.237l84.743-17.76v270.72
		c0,14.105,8.429,26.17,20.499,31.616L105.722,410.656z M171.674,362.169c-1.997,0-3.591-1.626-3.591-3.584V90.956V65.907
		c0-1.939,1.601-3.84,3.571-3.84h107.782l-15.334,73.107l-42.189,201.248c-1.938,9.235,0.014,18.375,4.704,25.748H171.674z
		 M453.651,373.439c-0.391,1.927-2.361,3.438-4.281,3.034l-27.072-5.927l-41.844-8.762l-30.163-6.329l-41.862-8.781l-43.091-9.03
		c-1.959-0.416-3.181-2.329-2.778-4.243l21.543-102.784l20.006-95.443l15.322-73.107l3.174-15.123
		c0.391-1.907,2.362-3.437,4.282-3.027l95.469,20.013l88.557,18.81c1.945,0.396,3.193,2.33,2.797,4.237L453.651,373.439z"/>
	<g>
		<path fill="#FF00FF" d="M414.97,124.556c5.555,1.581,11.13,3.104,16.652,4.807c5.178,1.581,6.132,4.538,2.977,8.819
			c-9.939,13.587-19.924,27.124-29.818,40.723c-0.652,0.883-2.118,1.734-1.407,3.002c0.55,0.973,1.965,0.557,3.027,0.582
			c12.973,0.461,25.964,0.941,38.918,1.402c0.967,0.064,1.927,0.089,2.887,0.153c2.208,0.16,3.917,1.165,4.812,3.219
			c0.896,2.029,0.051,3.687-1.318,5.235c-8.391,9.587-16.749,19.2-25.107,28.825c-22.233,25.575-44.479,51.162-66.707,76.743
			c-0.479,0.537-0.94,1.106-1.434,1.612c-2.4,2.644-5.248,3.181-7.642,1.466c-2.874-2.125-2.419-4.627-0.87-7.303
			c8.301-14.509,16.569-29.036,24.863-43.545c6.49-11.405,12.929-22.823,19.488-34.157c1.293-2.228,1.082-2.714-1.536-2.777
			c-13.695-0.391-27.386-0.941-41.081-1.434c-0.954-0.039-1.927-0.039-2.887-0.147c-4.768-0.551-6.483-3.93-4.096-8.153
			c10.457-18.394,20.935-36.807,31.417-55.188c4.801-8.467,9.729-16.87,14.42-25.376c1.823-3.341,4.262-4.313,7.763-3.296
			C403.84,121.407,409.396,122.956,414.97,124.556z"/>
	</g>
</g>
</svg>
