<?xml version="1.0" encoding="utf-8"?>
<!-- Generator: Adobe Illustrator 16.0.0, SVG Export Plug-In . SVG Version: 6.00 Build 0)  -->
<!DOCTYPE svg PUBLIC "-//W3C//DTD SVG 1.0//EN" "http://www.w3.org/TR/2001/REC-SVG-20010904/DTD/svg10.dtd">
<svg version="1.0" id="Layer_1" xmlns="http://www.w3.org/2000/svg" xmlns:xlink="http://www.w3.org/1999/xlink" x="0px" y="0px"
	 width="502.921px" height="453.188px" viewBox="0 0 502.921 453.188" enable-background="new 0 0 502.921 453.188"
	 xml:space="preserve">
<path fill="#FF00FF" d="M435.865,318.518c-16.764,0-32.411,6.147-44.146,16.763l-44.703-24.586l0,0
	c3.353-10.059,5.029-20.117,5.029-31.293c0-48.057-33.528-87.731-78.232-97.791v-51.409c26.264-8.941,44.704-34.088,44.704-63.145
	C318.517,30.176,288.342,0,251.46,0c-36.881,0-67.056,30.176-67.056,67.057c0,29.057,18.441,54.204,44.705,63.145v51.409
	c-44.705,10.059-78.233,50.293-78.233,97.791c0,10.059,1.677,20.117,4.471,29.616l0,0l-44.704,25.705
	c-11.734-10.058-26.822-16.205-43.586-16.205C30.175,318.518,0,348.692,0,385.574c0,36.881,30.175,67.056,67.056,67.056
	s67.056-30.175,67.056-67.056c0-3.912-0.558-8.383-1.117-12.294l44.703-25.705c18.44,20.117,44.704,32.411,73.762,32.411
	c28.499,0,54.204-11.734,72.645-30.734l45.821,25.705c-0.559,3.353-1.117,7.265-1.117,11.176c0,36.881,30.175,67.056,67.056,67.056
	c36.88,0,67.056-30.175,67.056-67.056C502.921,348.692,472.746,318.518,435.865,318.518z M67.056,413.514
	c-15.646,0-27.94-12.294-27.94-27.94c0-15.646,12.293-27.94,27.94-27.94c15.646,0,27.94,12.294,27.94,27.94
	C94.996,401.22,82.702,413.514,67.056,413.514z M251.46,39.117c15.646,0,27.94,12.294,27.94,27.94s-12.293,27.94-27.94,27.94
	c-15.646,0-27.94-12.293-27.94-27.94S235.814,39.117,251.46,39.117z M251.46,340.311c-33.528,0-60.909-27.381-60.909-60.91
	c0-33.528,27.38-60.909,60.909-60.909c33.529,0,60.909,27.381,60.909,60.909C312.37,312.929,284.989,340.311,251.46,340.311z
	 M435.865,413.514c-15.646,0-27.94-12.294-27.94-27.94c0-15.646,12.293-27.94,27.94-27.94s27.94,12.294,27.94,27.94
	C463.805,401.22,451.512,413.514,435.865,413.514z"/>
</svg>
