<?xml version="1.0" standalone="no"?>
<!DOCTYPE svg PUBLIC "-//W3C//DTD SVG 20010904//EN"
 "http://www.w3.org/TR/2001/REC-SVG-20010904/DTD/svg10.dtd">
<svg version="1.0" xmlns="http://www.w3.org/2000/svg"
 width="720.000000pt" height="720.000000pt" viewBox="0 0 720.000000 720.000000"
 preserveAspectRatio="xMidYMid meet">
<metadata>
Created by potrace 1.11, written by Peter Selinger 2001-2013
</metadata>
<g transform="translate(0.000000,720.000000) scale(0.100000,-0.100000)"
fill="#000000" stroke="none">
<path d="M1075 7189 c-48 -11 -155 -59 -155 -71 0 -4 -6 -8 -12 -8 -22 -1 -95
-82 -128 -142 -65 -120 -60 158 -60 -3358 0 -2837 2 -3211 15 -3260 8 -30 17
-64 20 -74 2 -11 10 -23 16 -26 6 -4 9 -9 7 -12 -8 -13 142 -178 161 -176 14
1 51 -15 51 -22 0 -5 31 -16 69 -24 63 -14 325 -16 2548 -16 l2478 0 73 21
c39 12 72 25 72 29 0 4 11 11 24 14 36 9 140 115 169 171 62 123 57 -155 57
3360 0 3437 3 3255 -47 3348 -9 18 -17 35 -18 39 0 15 -108 128 -121 128 -8 0
-14 4 -14 9 0 5 -16 15 -35 22 -19 7 -35 16 -35 20 0 4 -31 15 -69 23 -63 14
-323 16 -2548 15 -1406 -1 -2495 -5 -2518 -10z"/>
</g>
</svg>
